<?xml version="1.0" standalone="no"?>
<!DOCTYPE svg PUBLIC "-//W3C//DTD SVG 20010904//EN"
 "http://www.w3.org/TR/2001/REC-SVG-20010904/DTD/svg10.dtd">
<svg version="1.0" xmlns="http://www.w3.org/2000/svg"
 width="1026.000000pt" height="993.000000pt" viewBox="0 0 1026.000000 993.000000"
 preserveAspectRatio="xMidYMid meet">

<g transform="translate(0.000000,993.000000) scale(0.100000,-0.100000)"
fill="#fff"  stroke="none">
<path d="M6275 9614 c-561 -101 -1138 -541 -1404 -1072 -74 -147 -102 -246
-108 -378 -7 -131 4 -188 55 -294 45 -92 159 -212 277 -289 198 -131 651 -326
1025 -443 349 -109 581 -153 775 -146 145 5 229 28 332 90 390 234 492 907
246 1623 -149 434 -394 742 -685 863 -141 59 -341 77 -513 46z"/>
<path d="M2456 8864 c-533 -83 -805 -407 -857 -1024 -24 -280 12 -586 102
-866 122 -381 315 -672 509 -767 289 -143 594 -52 1114 332 351 259 735 645
910 913 249 382 172 682 -258 1005 -299 225 -665 370 -1041 413 -124 14 -372
11 -479 -6z"/>
<path d="M5030 7034 c-412 -27 -814 -176 -1139 -424 -251 -190 -461 -451 -605
-751 -382 -792 -222 -1709 409 -2345 458 -462 1060 -670 1697 -588 469 61 914
278 1238 604 493 495 691 1278 505 1993 -183 705 -765 1263 -1514 1452 -174
43 -431 69 -591 59z"/>
<path d="M8050 6994 c-283 -43 -456 -135 -557 -297 -82 -130 -103 -223 -103
-457 0 -430 78 -911 225 -1385 128 -411 263 -595 503 -682 534 -195 1524 495
1772 1235 80 240 79 474 -2 671 -205 492 -1011 928 -1703 920 -60 -1 -121 -3
-135 -5z"/>
<path d="M1849 5798 c-228 -20 -469 -144 -801 -411 -385 -309 -596 -602 -680
-942 -29 -121 -32 -346 -4 -449 77 -287 279 -527 616 -732 448 -272 1030 -392
1416 -294 259 67 424 228 486 478 20 77 22 112 22 302 -2 483 -108 1066 -271
1495 -161 423 -396 589 -784 553z"/>
<path d="M7660 3790 c-195 -52 -573 -281 -882 -532 -307 -251 -665 -654 -774
-873 -70 -142 -87 -255 -59 -390 31 -144 124 -296 264 -428 350 -329 1044
-559 1531 -507 351 37 595 172 760 422 268 405 278 1128 23 1689 -149 329
-315 517 -535 607 -88 35 -223 40 -328 12z"/>
<path d="M3288 2940 c-347 -41 -557 -334 -587 -817 -31 -506 122 -1043 404
-1418 200 -265 422 -386 712 -386 682 0 1544 668 1699 1316 20 85 23 240 5
315 -27 113 -78 198 -181 300 -144 144 -328 245 -730 400 -283 109 -558 190
-855 250 -129 26 -338 52 -385 49 -8 -1 -45 -5 -82 -9z"/>
</g>
</svg>
